<svg xmlns="http://www.w3.org/2000/svg" xmlns:xlink="http://www.w3.org/1999/xlink" width="500" zoomAndPan="magnify" viewBox="0 0 375 374.999991" height="500" preserveAspectRatio="xMidYMid meet" version="1.0"><defs><clipPath id="38252b6db5"><path d="M 18 129 L 195 129 L 195 231 L 18 231 Z M 18 129 " clip-rule="nonzero"/></clipPath><clipPath id="2ab6bf0b38"><path d="M -12.589844 179.929688 L 187.875 -20.535156 L 387.8125 179.402344 L 187.347656 379.867188 Z M -12.589844 179.929688 " clip-rule="nonzero"/></clipPath><clipPath id="b808db9d7c"><path d="M -12.589844 179.929688 L 187.875 -20.535156 L 387.8125 179.402344 L 187.347656 379.867188 Z M -12.589844 179.929688 " clip-rule="nonzero"/></clipPath><clipPath id="ea8e366319"><path d="M 130 148 L 188 148 L 188 211 L 130 211 Z M 130 148 " clip-rule="nonzero"/></clipPath><clipPath id="8750aa62d6"><path d="M -12.589844 179.929688 L 187.875 -20.535156 L 387.8125 179.402344 L 187.347656 379.867188 Z M -12.589844 179.929688 " clip-rule="nonzero"/></clipPath><clipPath id="41f5aaaa35"><path d="M -12.589844 179.929688 L 187.875 -20.535156 L 387.8125 179.402344 L 187.347656 379.867188 Z M -12.589844 179.929688 " clip-rule="nonzero"/></clipPath><clipPath id="bfa6c5f2e0"><path d="M 25 153 L 108 153 L 108 207 L 25 207 Z M 25 153 " clip-rule="nonzero"/></clipPath><clipPath id="bf0618b2f8"><path d="M -12.589844 179.929688 L 187.875 -20.535156 L 387.8125 179.402344 L 187.347656 379.867188 Z M -12.589844 179.929688 " clip-rule="nonzero"/></clipPath><clipPath id="ec4842188f"><path d="M -12.589844 179.929688 L 187.875 -20.535156 L 387.8125 179.402344 L 187.347656 379.867188 Z M -12.589844 179.929688 " clip-rule="nonzero"/></clipPath><clipPath id="2884ab8466"><path d="M 201 129 L 357 129 L 357 231 L 201 231 Z M 201 129 " clip-rule="nonzero"/></clipPath><clipPath id="637321ccef"><path d="M -12.589844 179.929688 L 187.875 -20.535156 L 387.8125 179.402344 L 187.347656 379.867188 Z M -12.589844 179.929688 " clip-rule="nonzero"/></clipPath><clipPath id="715c66a35a"><path d="M -12.589844 179.929688 L 187.875 -20.535156 L 387.8125 179.402344 L 187.347656 379.867188 Z M -12.589844 179.929688 " clip-rule="nonzero"/></clipPath><clipPath id="7dcefb018a"><path d="M 276 153 L 350 153 L 350 207 L 276 207 Z M 276 153 " clip-rule="nonzero"/></clipPath><clipPath id="74cb8070cd"><path d="M -12.589844 179.929688 L 187.875 -20.535156 L 387.8125 179.402344 L 187.347656 379.867188 Z M -12.589844 179.929688 " clip-rule="nonzero"/></clipPath><clipPath id="1c2a1d8c80"><path d="M -12.589844 179.929688 L 187.875 -20.535156 L 387.8125 179.402344 L 187.347656 379.867188 Z M -12.589844 179.929688 " clip-rule="nonzero"/></clipPath><clipPath id="b385de6be6"><path d="M 207 144 L 253 144 L 253 216 L 207 216 Z M 207 144 " clip-rule="nonzero"/></clipPath><clipPath id="cfdfb0944d"><path d="M -12.589844 179.929688 L 187.875 -20.535156 L 387.8125 179.402344 L 187.347656 379.867188 Z M -12.589844 179.929688 " clip-rule="nonzero"/></clipPath><clipPath id="126271260a"><path d="M -12.589844 179.929688 L 187.875 -20.535156 L 387.8125 179.402344 L 187.347656 379.867188 Z M -12.589844 179.929688 " clip-rule="nonzero"/></clipPath><clipPath id="d05c933dd0"><path d="M 144 166 L 179 166 L 179 194 L 144 194 Z M 144 166 " clip-rule="nonzero"/></clipPath><clipPath id="86d14ea924"><path d="M -12.589844 179.929688 L 187.875 -20.535156 L 387.8125 179.402344 L 187.347656 379.867188 Z M -12.589844 179.929688 " clip-rule="nonzero"/></clipPath><clipPath id="5b908ef6c8"><path d="M -12.589844 179.929688 L 187.875 -20.535156 L 387.8125 179.402344 L 187.347656 379.867188 Z M -12.589844 179.929688 " clip-rule="nonzero"/></clipPath></defs><g clip-path="url(#38252b6db5)"><g clip-path="url(#2ab6bf0b38)"><g clip-path="url(#b808db9d7c)"><path fill="#004aad" d="M 182.414062 149.335938 L 159.507812 149.335938 L 130.230469 142.417969 C 129.175781 135.03125 122.253906 129.128906 114.789062 129.324219 C 114.789062 129.324219 99.9375 129.324219 99.9375 129.324219 C 97.589844 129.324219 95.636719 131.277344 95.675781 133.664062 L 95.675781 147.109375 L 21.953125 147.109375 C 20.234375 147.109375 18.867188 148.476562 18.867188 150.199219 L 18.828125 209.339844 C 18.828125 211.058594 20.234375 212.464844 21.953125 212.464844 L 95.675781 212.464844 L 95.675781 225.914062 C 95.675781 228.257812 97.628906 230.210938 99.976562 230.210938 L 114.828125 230.210938 C 122.292969 230.328125 129.253906 224.464844 130.230469 217.078125 L 159.585938 210.160156 L 182.492188 210.160156 C 188.941406 210.199219 194.21875 204.921875 194.179688 198.472656 C 194.179688 198.472656 194.179688 161.101562 194.179688 161.101562 C 194.101562 154.613281 188.863281 149.375 182.414062 149.335938 Z M 25.042969 206.171875 L 25.042969 153.324219 L 107.285156 153.324219 L 107.285156 206.171875 Z M 124.210938 214.5 C 124.210938 217 123.234375 219.386719 121.472656 221.144531 C 119.675781 222.941406 117.292969 223.917969 114.75 223.878906 L 101.890625 223.917969 L 101.890625 212.425781 L 110.449219 212.464844 C 112.171875 212.464844 113.578125 211.058594 113.578125 209.339844 L 113.578125 150.238281 C 113.578125 148.515625 112.210938 147.148438 110.488281 147.148438 L 101.929688 147.109375 L 101.890625 135.578125 L 114.789062 135.578125 C 119.871094 135.5 124.367188 139.917969 124.210938 145 C 124.210938 145 124.210938 214.5 124.210938 214.5 Z M 187.886719 161.0625 L 187.886719 198.433594 C 187.886719 201.402344 185.421875 203.867188 182.414062 203.90625 L 159.15625 203.867188 C 158.921875 203.867188 158.648438 203.90625 158.453125 203.945312 L 130.425781 210.550781 L 130.464844 148.90625 L 158.453125 155.472656 C 158.726562 155.511719 158.921875 155.550781 159.15625 155.550781 L 182.414062 155.589844 C 185.460938 155.589844 187.925781 158.054688 187.886719 161.0625 Z M 187.886719 161.0625 " fill-opacity="1" fill-rule="nonzero"/></g></g></g><g clip-path="url(#ea8e366319)"><g clip-path="url(#8750aa62d6)"><g clip-path="url(#41f5aaaa35)"><path fill="#ffffff" d="M 182.414062 155.589844 L 159.15625 155.550781 C 158.921875 155.550781 158.6875 155.550781 158.453125 155.472656 L 130.464844 148.90625 L 130.425781 210.550781 L 158.453125 203.945312 C 158.648438 203.90625 158.921875 203.867188 159.15625 203.867188 L 182.414062 203.90625 C 185.421875 203.867188 187.847656 201.441406 187.886719 198.433594 L 187.886719 161.0625 C 187.925781 158.054688 185.460938 155.589844 182.414062 155.589844 Z M 178.425781 171.695312 L 178.425781 187.878906 C 178.425781 190.773438 176.003906 193.195312 173.109375 193.195312 C 173.109375 193.195312 150.242188 193.15625 150.242188 193.15625 C 147.3125 193.195312 144.925781 190.8125 144.925781 187.839844 L 144.925781 171.65625 C 144.925781 168.6875 147.3125 166.378906 150.242188 166.339844 L 173.109375 166.378906 C 176.042969 166.339844 178.425781 168.726562 178.425781 171.695312 Z M 178.425781 171.695312 " fill-opacity="1" fill-rule="nonzero"/></g></g></g><g clip-path="url(#bfa6c5f2e0)"><g clip-path="url(#bf0618b2f8)"><g clip-path="url(#ec4842188f)"><path fill="#ffffff" d="M 25.03125 206.191406 L 25.03125 153.289062 L 107.289062 153.289062 L 107.289062 206.191406 Z M 25.03125 206.191406 " fill-opacity="1" fill-rule="nonzero"/></g></g></g><g clip-path="url(#2884ab8466)"><g clip-path="url(#637321ccef)"><g clip-path="url(#715c66a35a)"><path fill="#004aad" d="M 353.078125 147.070312 L 275.992188 147.070312 C 276.96875 137.882812 269.777344 129.207031 260.316406 129.363281 C 260.316406 129.363281 245.464844 129.363281 245.464844 129.363281 C 243.117188 129.363281 241.203125 131.277344 241.164062 133.664062 L 241.203125 138.234375 L 210.949219 138.234375 C 205.59375 138.195312 201.214844 142.574219 201.253906 147.929688 L 201.253906 211.566406 C 201.253906 216.882812 205.632812 221.261719 210.949219 221.261719 L 241.203125 221.261719 L 241.164062 225.835938 C 241.164062 228.179688 243.117188 230.132812 245.464844 230.132812 L 260.316406 230.132812 C 269.816406 230.25 276.96875 221.613281 276.03125 212.386719 L 353.039062 212.386719 C 354.757812 212.386719 356.125 211.019531 356.125 209.300781 C 356.125 209.300781 356.125 150.199219 356.125 150.199219 C 356.203125 148.476562 354.796875 147.070312 353.078125 147.070312 Z M 207.46875 162.824219 L 218.804688 162.824219 C 218.960938 162.824219 219.15625 163.019531 219.15625 163.175781 L 219.15625 196.324219 C 219.195312 196.519531 219.039062 196.675781 218.882812 196.675781 L 207.507812 196.636719 Z M 210.988281 215.046875 C 209.035156 215.046875 207.46875 213.484375 207.507812 211.566406 L 207.507812 202.890625 L 218.84375 202.890625 C 222.519531 202.890625 225.371094 199.957031 225.410156 196.324219 L 225.410156 163.175781 C 225.449219 159.539062 222.441406 156.609375 218.84375 156.609375 L 207.507812 156.609375 L 207.507812 147.929688 C 207.507812 146.054688 209.074219 144.492188 210.988281 144.453125 L 241.242188 144.453125 C 241.398438 146.40625 240.65625 151.292969 242.140625 152.464844 C 242.726562 153.050781 243.511719 153.363281 244.332031 153.324219 L 252.890625 153.363281 L 252.890625 206.210938 L 244.332031 206.171875 C 242.6875 206.171875 241.203125 207.660156 241.203125 209.300781 C 241.203125 209.300781 241.203125 215.085938 241.203125 215.085938 Z M 269.777344 209.339844 L 269.777344 214.5 C 269.855469 219.660156 265.515625 223.996094 260.355469 223.917969 C 260.355469 223.917969 247.457031 223.917969 247.457031 223.917969 L 247.457031 212.425781 L 256.019531 212.464844 C 257.699219 212.503906 259.183594 211.019531 259.144531 209.339844 C 259.144531 209.339844 259.144531 150.238281 259.144531 150.238281 C 259.183594 148.554688 257.699219 147.070312 256.058594 147.148438 C 256.058594 147.148438 247.535156 147.148438 247.535156 147.148438 L 247.535156 135.65625 L 260.433594 135.65625 C 265.632812 135.617188 269.972656 139.957031 269.933594 145.078125 C 269.933594 145.078125 269.933594 150.238281 269.933594 150.238281 Z M 349.910156 206.210938 L 276.03125 206.210938 L 276.03125 153.363281 L 349.910156 153.363281 Z M 349.910156 206.210938 " fill-opacity="1" fill-rule="nonzero"/></g></g></g><g clip-path="url(#7dcefb018a)"><g clip-path="url(#74cb8070cd)"><g clip-path="url(#1c2a1d8c80)"><path fill="#ffffff" d="M 276.03125 206.230469 L 276.03125 153.324219 L 349.941406 153.324219 L 349.941406 206.226562 Z M 276.03125 206.230469 " fill-opacity="1" fill-rule="nonzero"/></g></g></g><g clip-path="url(#b385de6be6)"><g clip-path="url(#cfdfb0944d)"><g clip-path="url(#126271260a)"><path fill="#ffffff" d="M 252.851562 153.324219 L 252.851562 206.171875 L 244.292969 206.132812 C 242.648438 206.132812 241.164062 207.621094 241.164062 209.261719 C 241.164062 209.261719 241.164062 215.046875 241.164062 215.046875 L 210.988281 215.046875 C 209.035156 215.046875 207.46875 213.484375 207.507812 211.566406 L 207.507812 202.890625 L 218.84375 202.890625 C 222.519531 202.890625 225.371094 199.957031 225.410156 196.324219 L 225.410156 163.175781 C 225.449219 159.539062 222.441406 156.609375 218.84375 156.609375 L 207.507812 156.609375 L 207.507812 147.929688 C 207.507812 146.054688 209.074219 144.492188 210.988281 144.453125 L 241.242188 144.453125 C 241.398438 146.40625 240.65625 151.292969 242.140625 152.464844 C 242.726562 153.050781 243.511719 153.363281 244.332031 153.324219 Z M 252.851562 153.324219 " fill-opacity="1" fill-rule="nonzero"/></g></g></g><g clip-path="url(#d05c933dd0)"><g clip-path="url(#86d14ea924)"><g clip-path="url(#5b908ef6c8)"><path fill="#004aad" d="M 173.109375 166.378906 L 150.242188 166.339844 C 147.3125 166.378906 144.925781 168.6875 144.925781 171.65625 L 144.925781 187.839844 C 144.925781 190.8125 147.3125 193.195312 150.242188 193.15625 L 173.109375 193.195312 C 176.003906 193.195312 178.425781 190.773438 178.425781 187.878906 C 178.425781 187.878906 178.425781 171.695312 178.425781 171.695312 C 178.425781 168.726562 176.042969 166.339844 173.109375 166.378906 Z M 172.210938 186.902344 L 151.101562 186.902344 L 151.140625 172.554688 L 172.25 172.554688 Z M 172.210938 186.902344 " fill-opacity="1" fill-rule="nonzero"/></g></g></g></svg>