<svg xmlns="http://www.w3.org/2000/svg" xmlns:xlink="http://www.w3.org/1999/xlink" width="500" zoomAndPan="magnify" viewBox="0 0 375 374.999991" height="500" preserveAspectRatio="xMidYMid meet" version="1.0"><defs><clipPath id="e11aba33b6"><path d="M 114 223 L 207 223 L 207 362.996094 L 114 362.996094 Z M 114 223 " clip-rule="nonzero"/></clipPath></defs><path fill="#ffffff" d="M 192.996094 254.144531 C 192.996094 254.144531 191.316406 212.625 210.222656 200.183594 C 228.605469 188.09375 226.390625 182.484375 239.410156 160.925781 C 254.40625 136.089844 267.953125 126.417969 261.175781 120.613281 C 253.683594 114.191406 243.601562 114.808594 223.125 140.125 C 214.902344 150.285156 217.320312 89.214844 217.320312 44.667969 C 217.320312 35.480469 210.5 26.128906 203.613281 34.351562 C 198.617188 40.316406 198.9375 71.597656 193.777344 100.296875 C 192.917969 105.082031 186.523438 111.425781 186.523438 86.59375 C 186.523438 61.761719 184.480469 30.753906 183.828125 21.875 C 183.410156 16.1875 180.035156 11.988281 173.058594 13.390625 C 167.242188 14.558594 166.980469 22.003906 166.980469 22.003906 C 166.980469 22.003906 163.5 75.632812 163.949219 98.84375 C 164.027344 102.867188 159.671875 109.964844 158.0625 97.390625 C 156.449219 84.8125 156.089844 47.8125 151.132812 35.480469 C 148.839844 29.773438 143.683594 29.539062 141.054688 30.480469 C 137.640625 31.699219 135.289062 35.960938 135.089844 43.703125 C 134.769531 55.992188 139.867188 106.640625 139.761719 115.617188 C 139.695312 121.257812 136.683594 118.128906 135.167969 113.84375 C 132.265625 105.617188 124.761719 70.832031 122.105469 64.742188 C 117.996094 55.3125 108.808594 59.019531 107.839844 67.566406 C 107.046875 74.566406 113.429688 100.082031 114.207031 116.824219 C 114.867188 131.070312 114.503906 152.203125 120.710938 175.363281 C 125.332031 192.605469 131.082031 212.085938 130.113281 254.144531 L 192.996094 254.144531 " fill-opacity="1" fill-rule="nonzero"/><path fill="#004aad" d="M 126.890625 235.160156 C 126.890625 235.160156 124.941406 219.269531 124.578125 213 C 124.214844 206.730469 206.550781 204.003906 202.339844 214.355469 C 201.207031 217.144531 198.75 227.84375 197.300781 235.160156 L 126.890625 235.160156 " fill-opacity="1" fill-rule="nonzero"/><g clip-path="url(#e11aba33b6)"><path fill="#ffffff" d="M 205.703125 362.984375 C 206.339844 323.894531 206.871094 287.460938 206.890625 235.445312 C 206.898438 220.484375 118.207031 218.5 116.742188 235.445312 C 114.144531 265.464844 113.902344 310.648438 114.4375 362.984375 L 205.703125 362.984375 " fill-opacity="1" fill-rule="nonzero"/></g></svg>