<svg xmlns="http://www.w3.org/2000/svg" xmlns:xlink="http://www.w3.org/1999/xlink" width="500" zoomAndPan="magnify" viewBox="0 0 375 374.999991" height="500" preserveAspectRatio="xMidYMid meet" version="1.0"><defs><clipPath id="6bcc515bda"><path d="M 168 223 L 261 223 L 261 362.996094 L 168 362.996094 Z M 168 223 " clip-rule="nonzero"/></clipPath></defs><path fill="#ffffff" d="M 181.992188 254.144531 C 181.992188 254.144531 183.675781 212.625 164.765625 200.183594 C 146.382812 188.09375 148.597656 182.484375 135.582031 160.925781 C 120.585938 136.089844 107.035156 126.417969 113.8125 120.613281 C 121.304688 114.191406 131.386719 114.808594 151.863281 140.125 C 160.085938 150.285156 157.667969 89.214844 157.667969 44.667969 C 157.667969 35.480469 164.488281 26.128906 171.375 34.351562 C 176.375 40.316406 176.050781 71.597656 181.210938 100.296875 C 182.070312 105.082031 188.464844 111.425781 188.464844 86.59375 C 188.464844 61.761719 190.507812 30.753906 191.160156 21.875 C 191.578125 16.1875 194.953125 11.988281 201.933594 13.390625 C 207.75 14.558594 208.007812 22.003906 208.007812 22.003906 C 208.007812 22.003906 211.488281 75.632812 211.039062 98.84375 C 210.960938 102.867188 215.316406 109.964844 216.925781 97.390625 C 218.539062 84.8125 218.898438 47.8125 223.855469 35.480469 C 226.148438 29.773438 231.304688 29.539062 233.9375 30.480469 C 237.351562 31.699219 239.699219 35.960938 239.902344 43.703125 C 240.222656 55.992188 235.121094 106.640625 235.226562 115.617188 C 235.292969 121.257812 238.304688 118.128906 239.820312 113.84375 C 242.722656 105.617188 250.230469 70.832031 252.882812 64.742188 C 256.992188 55.3125 266.183594 59.019531 267.148438 67.566406 C 267.941406 74.566406 261.558594 100.082031 260.78125 116.824219 C 260.121094 131.070312 260.484375 152.203125 254.277344 175.363281 C 249.65625 192.605469 243.90625 212.085938 244.875 254.144531 L 181.992188 254.144531 " fill-opacity="1" fill-rule="nonzero"/><path fill="#004aad" d="M 248.097656 235.160156 C 248.097656 235.160156 250.046875 219.269531 250.410156 213 C 250.773438 206.730469 168.4375 204.003906 172.648438 214.355469 C 173.785156 217.144531 176.238281 227.84375 177.691406 235.160156 L 248.097656 235.160156 " fill-opacity="1" fill-rule="nonzero"/><g clip-path="url(#6bcc515bda)"><path fill="#ffffff" d="M 169.285156 362.984375 C 168.648438 323.894531 168.121094 287.460938 168.097656 235.445312 C 168.089844 220.484375 256.78125 218.5 258.246094 235.445312 C 260.84375 265.464844 261.089844 310.648438 260.550781 362.984375 L 169.285156 362.984375 " fill-opacity="1" fill-rule="nonzero"/></g></svg>